<?xml version="1.0" encoding="UTF-8" standalone="no"?>
<!-- Created with Inkscape (http://www.inkscape.org/) -->

<svg
   width="210mm"
   height="297mm"
   viewBox="0 0 210 297"
   version="1.1"
   id="svg1"
   inkscape:version="1.3.2 (1:1.3.2+202311252150+091e20ef0f)"
   sodipodi:docname="Basic Mechanic 01.svg"
   xmlns:inkscape="http://www.inkscape.org/namespaces/inkscape"
   xmlns:sodipodi="http://sodipodi.sourceforge.net/DTD/sodipodi-0.dtd"
   xmlns="http://www.w3.org/2000/svg"
   xmlns:svg="http://www.w3.org/2000/svg">
  <sodipodi:namedview
     id="namedview1"
     pagecolor="#ffffff"
     bordercolor="#000000"
     borderopacity="0.25"
     inkscape:showpageshadow="2"
     inkscape:pageopacity="0.0"
     inkscape:pagecheckerboard="0"
     inkscape:deskcolor="#d1d1d1"
     inkscape:document-units="mm"
     inkscape:zoom="1.3683616"
     inkscape:cx="217.7787"
     inkscape:cy="427.15318"
     inkscape:window-width="2560"
     inkscape:window-height="995"
     inkscape:window-x="0"
     inkscape:window-y="0"
     inkscape:window-maximized="1"
     inkscape:current-layer="layer1" />
  <defs
     id="defs1" />
  <g
     inkscape:label="Layer 1"
     inkscape:groupmode="layer"
     id="layer1">
    <ellipse
       style="fill:none;stroke:#7b7b7b;stroke-width:0.336"
       id="path1"
       cx="78.227547"
       cy="125.37592"
       rx="34.769253"
       ry="33.849445" />
    <rect
       style="fill:none;stroke:#7b7b7b;stroke-width:0.218907"
       id="rect1"
       width="25.248804"
       height="11.538392"
       x="48.434792"
       y="61.84087" />
    <path
       id="path2-0"
       style="fill:#ff0000;fill-opacity:1;stroke:none;stroke-width:0.336"
       d="m 63.598621,93.529395 a 3.3479674,3.5012681 76.826083 0 0 2.6901,-2.92348 c -0.270873,0.0381 -0.541481,0.077 -0.812825,0.1122 -0.40425,0.0512 -0.808115,0.10812 -1.211129,0.16779 -0.329957,0.0494 -0.661109,0.0877 -0.989794,0.1452 -0.257509,0.0355 -0.51724,0.0551 -0.773277,0.0998 -0.281687,0.047 -0.564072,0.0885 -0.849112,0.1091 -0.257615,0.0238 -0.512813,0.0749 -0.771396,0.0919 -0.304345,0.0316 -0.605695,0.0822 -0.90785,0.13023 -0.127025,0.0226 -0.253262,0.05 -0.378921,0.0795 a 3.3479674,3.5012681 76.826083 0 0 4.004156,1.98763 z m -3.799197,-4.77841 c -0.01333,-0.005 -0.02685,-0.008 -0.04044,-0.0118 a 3.3479674,3.5012681 76.826083 0 0 -0.0061,0.0126 c 0.01543,-5.3e-4 0.03091,-5e-5 0.04655,-6.3e-4 z m 0.823821,-1.02661 a 3.3479674,3.5012681 76.826083 0 1 0.0014,-8.7e-4 c -6.49e-4,1.7e-4 -7.12e-4,1.5e-4 -0.0016,3.6e-4 z m 0.0014,-8.7e-4 c 0.0026,-6.8e-4 0.0034,-7.3e-4 0.006,-0.001 -3.07e-4,-7.9e-4 -3.4e-4,-0.002 -6.84e-4,-0.003 a 3.3479674,3.5012681 76.826083 0 0 -0.0054,0.004 z" />
    <path
       id="path2-0-1"
       style="fill:#ff0000;fill-opacity:1;stroke:none;stroke-width:0.336"
       d="m 55.717037,74.553175 a 3.5012681,3.3479674 0 0 0 -3.285588,2.233448 c 0.272436,0.0246 0.544787,0.0484 0.817005,0.076 0.405276,0.0423 0.81149,0.0789 1.217497,0.11265 0.332532,0.0271 0.663693,0.0653 0.996838,0.0842 0.258828,0.0241 0.516193,0.0642 0.775663,0.0791 0.284993,0.0184 0.569393,0.0424 0.851628,0.0873 0.256268,0.0355 0.516398,0.0439 0.772046,0.0863 0.303535,0.0386 0.60849,0.058 0.913639,0.0801 0.128819,0.007 0.258,0.009 0.387056,0.009 a 3.5012681,3.3479674 0 0 0 -3.445784,-2.847888 z m 2.610177,5.518518 c 0.01182,0.008 0.02425,0.0142 0.03669,0.0207 a 3.5012681,3.3479674 0 0 0 0.0088,-0.0109 c -0.01515,-0.003 -0.03011,-0.007 -0.04547,-0.01 z m -1.036113,0.81184 a 3.5012681,3.3479674 0 0 1 -0.0016,5.2e-4 c 6.71e-4,-2e-5 7.29e-4,1e-5 0.0016,0 z m -0.0016,5.2e-4 c -0.0027,6e-5 -0.0035,-7e-5 -0.0062,0 1.18e-4,8.4e-4 -1.19e-4,0.002 0,0.003 a 3.5012681,3.3479674 0 0 0 0.0062,-0.003 z" />
    <ellipse
       style="fill:#ff0000;fill-opacity:1;stroke:none;stroke-width:0.336"
       id="path2-2"
       cx="55.162354"
       cy="67.302963"
       rx="3.5012681"
       ry="3.3479674" />
    <ellipse
       style="fill:#ff0000;fill-opacity:1;stroke:none;stroke-width:0.336"
       id="path2-2-5-6"
       cx="96.332916"
       cy="100.75562"
       rx="3.5012681"
       ry="3.3479674"
       inkscape:transform-center-x="8.197359"
       inkscape:transform-center-y="-24.766177" />
    <path
       sodipodi:type="star"
       style="fill:none;fill-opacity:1;stroke:none;stroke-width:1.936;stroke-dasharray:none;stroke-opacity:1"
       id="path8"
       inkscape:flatsided="false"
       sodipodi:sides="5"
       sodipodi:cx="102.80441"
       sodipodi:cy="95.71096"
       sodipodi:r1="6.9398556"
       sodipodi:r2="3.4699278"
       sodipodi:arg1="0.81236348"
       sodipodi:arg2="1.440682"
       inkscape:rounded="0"
       inkscape:randomized="0"
       d="m 107.57754,100.7487 -4.32291,-1.597143 -3.766419,2.655663 0.183124,-4.604877 -3.689574,-2.76143 4.436089,-1.248824 1.48613,-4.362322 2.55853,3.833063 4.60806,0.06537 -2.85483,3.617788 z"
       inkscape:transform-center-x="0.27824912"
       inkscape:transform-center-y="-0.39246729"
       transform="translate(-17.288903,-11.469288)" />
    <path
       id="rect9-2"
       style="fill:#0000ff;fill-opacity:1;stroke:none;stroke-width:1.936;stroke-dasharray:none;stroke-opacity:1"
       d="m 68.587074,88.020615 3.539321,3.48403 3.203939,-3.25458 c -0.425971,0.0166 -0.852288,0.0266 -1.278476,0.0326 -0.446451,0.005 -0.892975,0.007 -1.339455,0.008 -0.372706,5.5e-4 -0.745046,8.4e-4 -1.117759,10e-4 -0.32267,0.0102 -0.644058,-0.007 -0.965315,-0.0351 -0.254098,-0.0262 -0.509284,-0.0326 -0.763264,-0.0589 -0.276214,-0.0271 -0.550336,-0.0682 -0.824752,-0.10904 -0.152637,-0.0149 -0.303498,-0.0408 -0.454239,-0.0677 z" />
    <path
       id="rect9-2-7"
       style="fill:#0000ff;fill-opacity:1;stroke:none;stroke-width:1.936;stroke-dasharray:none;stroke-opacity:1"
       d="m 70.319646,77.35651 -3.736235,-3.271976 -3.008949,3.435656 c 0.42428,-0.0414 0.849295,-0.0762 1.27441,-0.107 0.445402,-0.031 0.891051,-0.059 1.336715,-0.086 0.372041,-0.0223 0.743732,-0.0442 1.115803,-0.0661 0.321529,-0.029 0.643373,-0.0305 0.965721,-0.0212 0.255193,0.0114 0.510318,0.003 0.765399,0.0143 0.277323,0.011 0.553376,0.036 0.829706,0.0608 0.15324,0.006 0.30536,0.0231 0.45741,0.0411 z" />
    <path
       id="rect9-2-7-9"
       style="fill:none;fill-opacity:1;stroke:#7b7b7b;stroke-width:0.336;stroke-dasharray:none;stroke-opacity:1"
       d="m 69.619151,68.973902 -3.73624,-3.271976 -3.008944,3.435656 c 0.42428,-0.0414 0.849295,-0.0762 1.274414,-0.107 0.4454,-0.031 0.89105,-0.059 1.33671,-0.086 0.37204,-0.0223 0.74373,-0.0442 1.1158,-0.0661 0.32153,-0.029 0.64338,-0.0305 0.96572,-0.0212 0.2552,0.0114 0.51032,0.003 0.7654,0.0143 0.27733,0.011 0.55338,0.036 0.82971,0.0608 0.15324,0.006 0.30536,0.0231 0.45741,0.0411 z" />
    <rect
       style="fill:none;stroke:#7b7b7b;stroke-width:0.218907"
       id="rect1-2"
       width="25.248804"
       height="11.538392"
       x="132.47319"
       y="-2.9233489"
       transform="rotate(30.917838)" />
    <path
       id="path2-0-1-8"
       style="fill:#ff0000;fill-opacity:1;stroke:none;stroke-width:0.336"
       d="m 113.96541,80.261402 a 3.5012681,3.3479674 30.917838 0 0 -3.96629,0.227923 c 0.22109,0.161088 0.44251,0.321438 0.66186,0.484978 0.32596,0.24453 0.65564,0.48464 0.98662,0.72221 0.27135,0.1941 0.53583,0.39703 0.81193,0.58442 0.20967,0.15366 0.40986,0.3203 0.6248,0.4664 0.23505,0.16222 0.46671,0.32894 0.68576,0.51247 0.20162,0.16213 0.42047,0.30299 0.61801,0.47072 0.24056,0.18907 0.49222,0.36241 0.74266,0.53816 0.10691,0.0722 0.21671,0.14028 0.32743,0.20659 a 3.5012681,3.3479674 30.917838 0 0 -1.49289,-4.21369 z m -0.59618,6.075491 c 0.006,0.0129 0.0135,0.0246 0.0208,0.0366 a 3.5012681,3.3479674 30.917838 0 0 0.0133,-0.005 c -0.0115,-0.0104 -0.0222,-0.0215 -0.0339,-0.032 z m -1.30602,0.16412 a 3.5012681,3.3479674 30.917838 0 1 -0.002,-5.8e-4 c 5.8e-4,3.3e-4 6.2e-4,3.8e-4 0.002,0.001 z m -0.002,-5.8e-4 c -0.003,-0.001 -0.003,-0.002 -0.005,-0.003 -3.3e-4,7.8e-4 -10e-4,0.002 -0.002,0.003 a 3.5012681,3.3479674 30.917838 0 0 0.007,5.1e-4 z" />
    <path
       id="path2-0-1-8-4"
       style="fill:none;fill-opacity:1;stroke:#7b7b7b;stroke-width:0.336;stroke-opacity:1"
       d="m 117.05742,71.621764 a 3.5012681,3.3479674 30.917838 0 0 -2.15646,0.736389 c 0.22109,0.161086 0.44211,0.3217 0.66146,0.485242 0.32596,0.244526 0.65604,0.484354 0.98702,0.72192 0.27135,0.194106 0.53574,0.397072 0.81184,0.58446 0.20967,0.153665 0.40983,0.320538 0.62477,0.466638 0.23505,0.162221 0.46669,0.329099 0.68574,0.512631 0.20162,0.162129 0.42051,0.302524 0.61805,0.470255 0.24056,0.189071 0.49215,0.36272 0.74259,0.538469 0.10691,0.07219 0.2164,0.140399 0.32712,0.206705 a 3.5012681,3.3479674 30.917838 0 0 -1.49242,-4.213696 v -5.17e-4 a 3.5012681,3.3479674 30.917838 0 0 -1.80971,-0.508496 z" />
    <path
       id="rect9-2-7-9-6-1"
       style="fill:none;fill-opacity:1;stroke:#7b7b7b;stroke-width:0.336;stroke-dasharray:none;stroke-opacity:1"
       d="m 197.0828,111.18058 -3.73624,-3.27198 -3.00895,3.43566 c 0.42428,-0.0414 0.8493,-0.0762 1.27442,-0.107 0.4454,-0.031 0.89105,-0.059 1.33671,-0.086 0.37204,-0.0223 0.74373,-0.0442 1.1158,-0.0661 0.32153,-0.029 0.64338,-0.0305 0.96572,-0.0212 0.2552,0.0114 0.51032,0.003 0.7654,0.0143 0.27733,0.011 0.55338,0.036 0.82971,0.0608 0.15324,0.006 0.30536,0.0231 0.45741,0.0411 z" />
    <path
       id="path2-0-1-8-4-4-7"
       style="fill:none;fill-opacity:1;stroke:#7b7b7b;stroke-width:0.336;stroke-opacity:1"
       d="m 191.8371,118.10344 a 3.3479674,3.5012681 86.22761 0 0 -1.35403,1.83281 c 0.27347,0.007 0.54661,0.0129 0.82005,0.0225 0.40719,0.0155 0.81509,0.0249 1.22244,0.0318 0.33359,0.005 0.6665,0.0216 1.00017,0.0185 0.25985,0.007 0.51941,0.0303 0.77929,0.0281 0.2856,-3.9e-4 0.57104,0.005 0.85561,0.0312 0.25805,0.0186 0.51793,0.009 0.77582,0.0349 0.30541,0.0185 0.61111,0.0181 0.91705,0.0201 0.129,-0.001 0.25784,-0.008 0.38662,-0.0162 a 3.3479674,3.5012681 86.22761 0 0 -3.62531,-2.61528 l -3e-4,-4.3e-4 a 3.3479674,3.5012681 86.22761 0 0 -1.77741,0.61188 z" />
    <path
       id="path2-0-1-8-4-4-7-2"
       style="fill:none;fill-opacity:1;stroke:#7b7b7b;stroke-width:0.336;stroke-opacity:1"
       d="m 105.22213,109.35442 a 3.5012681,3.3479674 45.239659 0 0 2.2716,-0.18005 c -0.17409,-0.21102 -0.34878,-0.42107 -0.52089,-0.63377 -0.25537,-0.31754 -0.51582,-0.6316 -0.77779,-0.94362 -0.21503,-0.25509 -0.42085,-0.51727 -0.64205,-0.76711 -0.16515,-0.20073 -0.31781,-0.41195 -0.48992,-0.60667 -0.18762,-0.21533 -0.37078,-0.43433 -0.53765,-0.66632 -0.15521,-0.20699 -0.33291,-0.39686 -0.48251,-0.60852 -0.18636,-0.24267 -0.38717,-0.47316 -0.58633,-0.70541 -0.0854,-0.0967 -0.17515,-0.18939 -0.26581,-0.28122 a 3.5012681,3.3479674 45.239659 0 0 0.40371,4.45192 l -1.3e-4,5.1e-4 a 3.5012681,3.3479674 45.239659 0 0 1.62768,0.94034 z" />
    <ellipse
       style="fill:#ffff00;fill-opacity:1;stroke:none;stroke-width:0.336"
       id="path2-5-9-7"
       cx="149.51263"
       cy="2.6929004"
       rx="3.5012681"
       ry="3.3479674"
       transform="rotate(30.917838)" />
    <ellipse
       style="fill:#ff0000;fill-opacity:1;stroke:none;stroke-width:0.336"
       id="path2-2-5-2"
       cx="181.2025"
       cy="111.27752"
       rx="3.5012681"
       ry="3.3479674"
       inkscape:transform-center-x="8.197359"
       inkscape:transform-center-y="-24.766177" />
    <ellipse
       style="fill:#ffff00;fill-opacity:1;stroke:none;stroke-width:0.336"
       id="path2-5-9-7-1-0"
       cx="216.8512"
       cy="9.4982042"
       rx="3.5012681"
       ry="3.3479674"
       transform="rotate(30.917838)" />
    <ellipse
       style="fill:#00ff00;fill-opacity:1;stroke:none;stroke-width:0.336"
       id="path2-5-9-7-1-4-6"
       cx="221.20499"
       cy="17.023275"
       rx="3.5012681"
       ry="3.3479674"
       transform="rotate(30.917838)" />
    <ellipse
       style="fill:#0000ff;fill-opacity:1;stroke:none;stroke-width:0.336"
       id="path2-5-9-7-1-4-3-8"
       cx="225.48918"
       cy="24.616713"
       rx="3.5012681"
       ry="3.3479674"
       transform="rotate(30.917838)" />
    <path
       id="rect9-2-7-3"
       style="fill:#00ff37;fill-opacity:1;stroke:none;stroke-width:1.936;stroke-dasharray:none;stroke-opacity:1"
       d="m 125.95451,90.113452 -1.52417,-4.72676 -4.34666,1.401443 c 0.38527,0.182481 0.76777,0.371005 1.1483,0.563006 0.39804,0.202255 0.79475,0.407213 1.19097,0.613038 0.33063,0.172026 0.66076,0.344216 0.99121,0.5166 0.29074,0.140323 0.56762,0.304403 0.83939,0.478003 0.21307,0.1409 0.43627,0.26479 0.64929,0.40554 0.23227,0.15193 0.45625,0.31522 0.68058,0.47847 0.12838,0.0839 0.2501,0.17672 0.37129,0.27029 z" />
    <text
       xml:space="preserve"
       style="font-size:3.52777px;font-family:FreeMono;-inkscape-font-specification:FreeMono;fill:#000000;fill-opacity:1;stroke:#7b7b7b;stroke-width:0.336;stroke-dasharray:none;stroke-opacity:1"
       x="58.336243"
       y="65.248512"
       id="text11"><tspan
         sodipodi:role="line"
         id="tspan11"
         style="fill:#000000;fill-opacity:1;stroke-width:0.336"
         x="58.336243"
         y="65.248512">2</tspan></text>
    <text
       xml:space="preserve"
       style="font-size:3.52777px;font-family:FreeMono;-inkscape-font-specification:FreeMono;fill:#000000;fill-opacity:1;stroke:#7b7b7b;stroke-width:0.336;stroke-dasharray:none;stroke-opacity:1"
       x="132.44385"
       y="49.424286"
       id="text12"
       transform="rotate(10.85002)"><tspan
         sodipodi:role="line"
         id="tspan12"
         style="stroke-width:0.336"
         x="132.44385"
         y="49.424286">3</tspan></text>
    <rect
       style="fill:none;fill-opacity:1;stroke:#7b7b7b;stroke-width:0.262628;stroke-dasharray:none;stroke-opacity:1"
       id="rect12-3"
       width="35.133575"
       height="112.18693"
       x="173.61047"
       y="50.369278" />
    <text
       xml:space="preserve"
       style="font-size:3.52777px;font-family:FreeMono;-inkscape-font-specification:FreeMono;fill:#000000;fill-opacity:1;stroke:#7b7b7b;stroke-width:0.336;stroke-dasharray:none;stroke-opacity:1"
       x="184.49039"
       y="108.38843"
       id="text11-2-6"><tspan
         sodipodi:role="line"
         id="tspan11-0-49"
         style="fill:#000000;fill-opacity:1;stroke-width:0.336"
         x="184.49039"
         y="108.38843">4</tspan></text>
    <text
       xml:space="preserve"
       style="font-size:3.52777px;font-family:FreeMono;-inkscape-font-specification:FreeMono;fill:#000000;fill-opacity:1;stroke:#7b7b7b;stroke-width:0.336;stroke-dasharray:none;stroke-opacity:1"
       x="184.39467"
       y="116.78348"
       id="text11-2-5-5"><tspan
         sodipodi:role="line"
         id="tspan11-0-4-0"
         style="fill:#000000;fill-opacity:1;stroke-width:0.336"
         x="184.39467"
         y="116.78348">1</tspan></text>
    <text
       xml:space="preserve"
       style="font-size:3.66071px;font-family:FreeMono;-inkscape-font-specification:FreeMono;fill:#0000ff;fill-opacity:1;stroke:#7b7b7b;stroke-width:0.348662;stroke-dasharray:none;stroke-opacity:1"
       x="210.81274"
       y="106.31476"
       id="text13"
       transform="scale(0.95536953,1.0467154)"><tspan
         sodipodi:role="line"
         id="tspan13"
         style="stroke-width:0.348662"
         x="210.81274"
         y="106.31476">S</tspan></text>
    <text
       xml:space="preserve"
       style="font-size:3.52777px;font-family:FreeMono;-inkscape-font-specification:FreeMono;fill:#333333;fill-opacity:1;stroke:none;stroke-width:0.336;stroke-dasharray:none;stroke-opacity:1"
       x="3.8429852"
       y="164.62373"
       id="text14"><tspan
         sodipodi:role="line"
         id="tspan14"
         style="font-style:normal;font-variant:normal;font-weight:normal;font-stretch:normal;font-family:Gargi;-inkscape-font-specification:Gargi;fill:#333333;stroke:none;stroke-width:0.336"
         x="3.8429852"
         y="164.62373">S = Speed - erhöht die Anzugsgeschwindigkeit</tspan><tspan
         sodipodi:role="line"
         style="font-style:normal;font-variant:normal;font-weight:normal;font-stretch:normal;font-family:Gargi;-inkscape-font-specification:Gargi;fill:#333333;stroke:none;stroke-width:0.336"
         x="3.8429852"
         y="169.08681"
         id="tspan15">C = Color - Farbe passt sich an Gegenstück an</tspan><tspan
         sodipodi:role="line"
         style="font-style:normal;font-variant:normal;font-weight:normal;font-stretch:normal;font-family:Gargi;-inkscape-font-specification:Gargi;fill:#333333;stroke:none;stroke-width:0.336"
         x="3.8429852"
         y="173.54987"
         id="tspan16">F =  Form - Form passt sich an Gegenstück an</tspan><tspan
         sodipodi:role="line"
         style="font-style:normal;font-variant:normal;font-weight:normal;font-stretch:normal;font-family:Gargi;-inkscape-font-specification:Gargi;fill:#333333;stroke:none;stroke-width:0.336"
         x="3.8429852"
         y="178.01294"
         id="tspan17">J = Form &amp; Color-Joker - passt beides an</tspan><tspan
         sodipodi:role="line"
         style="font-style:normal;font-variant:normal;font-weight:normal;font-stretch:normal;font-family:Gargi;-inkscape-font-specification:Gargi;fill:#333333;stroke:none;stroke-width:0.336"
         x="3.8429852"
         y="182.42334"
         id="tspan18">K = Kupplungkiller - entfernt eine fertig Kupplung</tspan><tspan
         sodipodi:role="line"
         style="font-style:normal;font-variant:normal;font-weight:normal;font-stretch:normal;font-family:Gargi;-inkscape-font-specification:Gargi;fill:#333333;stroke:none;stroke-width:0.336"
         x="3.8429852"
         y="186.83374"
         id="tspan19">M = Kupplungsbeweger - lässt eine Kupplung bewegen</tspan></text>
    <rect
       style="fill:#b3b3b3;fill-opacity:1;stroke:none;stroke-width:0.296;stroke-dasharray:none;stroke-opacity:1"
       id="rect17"
       width="2.3437076"
       height="2.509119"
       x="62.750637"
       y="93.510368" />
    <rect
       style="fill:#b3b3b3;fill-opacity:1;stroke:none;stroke-width:0.296;stroke-dasharray:none;stroke-opacity:1"
       id="rect17-8"
       width="2.3437076"
       height="2.509119"
       x="54.515434"
       y="72.682365" />
    <rect
       style="fill:#b3b3b3;fill-opacity:1;stroke:none;stroke-width:0.296;stroke-dasharray:none;stroke-opacity:1"
       id="rect17-6"
       width="2.3437076"
       height="2.509119"
       x="65.292625"
       y="72.032906" />
    <rect
       style="fill:#b3b3b3;fill-opacity:1;stroke:none;stroke-width:0.296;stroke-dasharray:none;stroke-opacity:1"
       id="rect17-3"
       width="2.3437076"
       height="2.509119"
       x="113.84235"
       y="78.291298" />
    <rect
       style="fill:#b3b3b3;fill-opacity:1;stroke:none;stroke-width:0.296;stroke-dasharray:none;stroke-opacity:1"
       id="rect17-5"
       width="2.3437076"
       height="2.509119"
       x="123.6583"
       y="83.562485" />
    <rect
       style="fill:#b3b3b3;fill-opacity:1;stroke:none;stroke-width:0.296;stroke-dasharray:none;stroke-opacity:1"
       id="rect17-1"
       width="2.3437076"
       height="2.509119"
       x="71.213104"
       y="91.242142" />
    <rect
       style="fill:#b3b3b3;fill-opacity:1;stroke:none;stroke-width:0.296;stroke-dasharray:none;stroke-opacity:1"
       id="rect17-1-6"
       width="2.3437076"
       height="2.509119"
       x="81.243996"
       y="90.232178" />
    <rect
       style="fill:#b3b3b3;fill-opacity:1;stroke:none;stroke-width:0.296;stroke-dasharray:none;stroke-opacity:1"
       id="rect17-1-6-8"
       width="2.3437076"
       height="2.509119"
       x="97.247757"
       y="96.388924" />
    <rect
       style="fill:#b3b3b3;fill-opacity:1;stroke:none;stroke-width:0.296;stroke-dasharray:none;stroke-opacity:1"
       id="rect17-1-6-8-1"
       width="2.3437076"
       height="2.509119"
       x="105.45756"
       y="103.89667" />
    <rect
       style="fill:#b3b3b3;fill-opacity:1;stroke:none;stroke-width:0.296;stroke-dasharray:none;stroke-opacity:1"
       id="rect17-1-6-8-1-7"
       width="2.3437076"
       height="2.509119"
       x="110.18735"
       y="114.62202" />
    <rect
       style="fill:#b3b3b3;fill-opacity:1;stroke:none;stroke-width:0.296;stroke-dasharray:none;stroke-opacity:1"
       id="rect17-1-6-8-1-8"
       width="2.3437076"
       height="2.509119"
       x="51.216648"
       y="101.23914" />
    <rect
       style="fill:#b3b3b3;fill-opacity:1;stroke:none;stroke-width:0.296;stroke-dasharray:none;stroke-opacity:1"
       id="rect17-1-6-8-1-9"
       width="2.3437076"
       height="2.509119"
       x="45.542553"
       y="110.27792" />
    <rect
       style="fill:#b3b3b3;fill-opacity:1;stroke:none;stroke-width:0.296;stroke-dasharray:none;stroke-opacity:1"
       id="rect17-1-6-8-1-3"
       width="2.3437076"
       height="2.509119"
       x="42.352444"
       y="119.47527" />
    <rect
       style="fill:#b3b3b3;fill-opacity:1;stroke:none;stroke-width:0.296;stroke-dasharray:none;stroke-opacity:1"
       id="rect17-1-6-8-1-0"
       width="2.3437076"
       height="2.509119"
       x="111.51893"
       y="129.05676" />
  </g>
</svg>
